<svg width="250" height="80" viewBox="0 0 250 80" xmlns="http://www.w3.org/2000/svg">
    <g fill="none" fill-rule="evenodd">
        <path fill="none" d="M0 0h250v80H0z"/>
        <path d="M45.898 54.4V25h6.698v29.4h-6.698zM176.12 43.403c0-7.121-5.5-11.528-11.986-11.528-6.486 0-11.986 4.442-11.986 11.528 0 7.12 5.5 11.563 11.986 11.563 6.487 0 11.986-4.513 11.986-11.563zm-6.592 0c0 3.701-2.503 5.817-5.394 5.817-2.89 0-5.394-2.08-5.394-5.817 0-3.772 2.503-5.746 5.394-5.746 2.89 0 5.394 1.974 5.394 5.746zM43.219 45.94c0-3.314-1.728-5.852-4.795-6.98 2.89-1.586 3.913-3.666 3.913-6.134 0-4.3-3.102-7.826-10.047-7.791H19v29.401h13.89c6.98-.035 10.329-3.525 10.329-8.496zM35.25 33.672c0 2.01-1.269 3.138-3.701 3.138h-5.57v-6.134h5.57c2.22.035 3.701.987 3.701 2.996zm.6 11.81c0 1.903-1.34 3.173-3.843 3.173H25.98v-6.381h6.028c2.433.035 3.843 1.269 3.843 3.208zm65.71-7.58c-1.832-3.842-5.252-5.957-10.47-5.957-6.133 0-11.597 3.842-11.597 11.492C79.494 50.875 84.324 55 91.02 55c4.689 0 8.672-1.868 10.54-5.922l-5.393-2.785c-.987 1.797-2.503 2.926-4.9 2.926-3.102 0-5.112-2.221-5.112-5.817s2.292-5.746 5.077-5.746c2.15 0 3.807.987 4.83 3.102l5.499-2.856zm98.708 0c-1.833-3.842-5.253-5.957-10.47-5.957-6.134 0-11.598 3.842-11.598 11.492 0 7.438 4.83 11.563 11.528 11.563 4.688 0 8.672-1.868 10.54-5.922l-5.394-2.785c-.987 1.797-2.502 2.926-4.9 2.926-3.102 0-5.111-2.221-5.111-5.817s2.291-5.746 5.076-5.746c2.15 0 3.807.987 4.83 3.102l5.5-2.856zm-56.157 16.499-5.606-9.871h-4.3v9.87h-6.91V25h12.444c6.734 0 11.422 3.243 11.422 9.553 0 4.055-2.01 6.91-5.57 8.673l6.451 11.175h-7.931zm-9.836-15.723h5.147c3.173 0 4.724-1.798 4.724-3.913 0-2.538-1.48-3.913-4.724-3.913h-5.147v7.826zM78.401 54.013v-4.618c-.282.07-.705.176-1.128.176-.846 0-1.305-.458-1.305-1.234v-7.65c0-5.71-3.842-8.742-10.188-8.742-4.124 0-7.65 1.516-9.835 3.455l3.701 4.16c1.48-1.305 3.42-2.116 5.359-2.116 2.926 0 4.336 1.48 4.336 3.878v.705c-1.375-.317-3.138-.67-5.253-.67-5.358 0-8.813 2.574-8.813 6.84 0 4.37 2.89 6.662 7.403 6.662 3.067 0 5.817-1.27 7.227-2.89.846 2.15 2.75 2.749 4.583 2.749 1.198.035 2.679-.176 3.913-.705zm-9.06-6.91c0 2.01-1.904 3.314-4.125 3.314-2.08 0-3.102-1.057-3.102-2.538 0-1.551 1.128-2.68 3.455-2.68 1.445 0 2.679.248 3.772.494v1.41zm154.865 7.298-7.897-13.678 7.403-8.038h-7.438l-7.791 8.672V25.071h-6.663v29.4h6.663v-5.323l3.173-3.384 4.97 8.707h7.544v-.07h.036zm-98.637 0-7.897-13.678 7.403-8.038h-7.509l-7.72 8.672V25.071h-6.663v29.4h6.663v-5.323l3.173-3.384 4.97 8.707h7.544v-.07h.036zm102.726-4.09c1.375 0 2.22.846 2.22 2.15 0 1.305-.81 2.151-2.22 2.151-1.375 0-2.221-.846-2.221-2.15.035-1.305.846-2.15 2.22-2.15zm0 4.054c1.093 0 1.833-.67 1.833-1.868 0-1.234-.775-1.868-1.833-1.868-1.093 0-1.833.67-1.833 1.868-.035 1.234.74 1.868 1.833 1.868zm-.846-2.996h.881c.529 0 .811.282.811.705 0 .353-.176.564-.458.705l.423.776h-.423l-.353-.705h-.493v.705h-.423v-2.186h.035zm.388.317v.776h.458c.282 0 .458-.07.458-.353 0-.246-.106-.352-.423-.352h-.493v-.07z" fill="#929CAC" fill-rule="nonzero"/>
    </g>
</svg>
