<svg width="127" height="105" viewBox="0 0 127 105" xmlns="http://www.w3.org/2000/svg">
    <path d="M6.39 104.7c30.546-8.4 54.27-40.2 54.27-70.2C60.66 14.1 47.298 0 30.663 0 14.028 0 .666 14.1.666 34.5c21.546 10.2 32.181 25.35 32.181 39.3 0 12.75-9 24.3-26.454 29.4l-.003 1.5zm65.403 0c30.546-8.4 54.27-40.2 54.27-70.2 0-20.4-13.362-34.5-29.997-34.5-16.635 0-29.997 14.1-29.997 34.5C87.615 44.7 98.25 59.85 98.25 73.8c0 12.75-9 24.3-26.454 29.4l-.003 1.5z" fill="#6B728E" fill-rule="nonzero" opacity=".5"/>
</svg>
