<svg width="250" height="80" viewBox="0 0 250 80" xmlns="http://www.w3.org/2000/svg" xmlns:xlink="http://www.w3.org/1999/xlink">
    <defs>
        <path id="1k49znmh5a" d="M0 0h39.147v39.147H0z"/>
        <path id="cnxty5ugpc" d="M0 0h104.712v40H0z"/>
    </defs>
    <g fill="none" fill-rule="evenodd">
        <path fill="none" d="M0 0h250v80H0z"/>
        <g transform="translate(45 20.853)">
            <mask id="4lf3be898b" fill="#fff">
                <use xlink:href="#1k49znmh5a"/>
            </mask>
            <path d="m36.647 12.451-1.722-1.32-5.353 5.353-1.793-1.462v-3.585l-1.39 1.18v4.574l-2.218 2.146L35.703 30.87l-4.881 4.834-11.65-11.673L7.9 35.468l-4.81-4.906L14.596 19.22l-2.264-2.264V12.45l-1.155-.873v3.444l-1.863 1.556-5.212-5.612-1.698 1.414C2.57 6.674 7.357.825 12.027 4.67l6.202 5.99-1.462 1.321 2.782 2.735 2.877-2.806-1.156-1.392 5.66-5.612C31.79.19 37.662 8.702 36.648 12.451zM0 39.147h39.147V0H0v39.147z" fill="#929CAC" mask="url(#4lf3be898b)"/>
        </g>
        <g transform="translate(101.104 20)">
            <mask id="0bzw8be6cd" fill="#fff">
                <use xlink:href="#cnxty5ugpc"/>
            </mask>
            <path d="m51.941 23.965-3.008 15.988h4.524l1.208-5.97 4.05 5.97h5.946l-5.804-8.385 7.414-7.627h-5.756l-5.068 5.638.805-5.638-4.31.024zM30.838 40h4.287l1.089-9.972 6.135 9.925h4.595l1.919-15.94h-4.288l-1.208 9.97-6.134-10.018h-4.429L30.838 40zm-10.28-6.182h2.89l-.924-4.193-1.965 4.193zm-7.555 6.135h4.642l1.398-2.795H24.3L25.083 40h4.286l-3.718-15.893h-4.382l-8.266 15.846zm-6.3-12.15-.45 2.13.545.024c1.634.095 2.581-2.155.615-2.155h-.71zm-.9 5.707-.545 2.629h1.776c2.013.095 1.777-2.629.617-2.629H5.803zM2.7 24.013 0 39.929h7.65c5.187 0 7.319-6.443 3.624-8.645 3.15-2.913 1.54-7.295-1.847-7.343l-6.727.072zm90.501-17.29v10.729h4.05V10.89c.118-1.635 3.34-1.919 3.363 0v6.56h4.098v-6.726c-.095-3.766-4.05-5.59-7.627-3.197v-.806h-3.884zm-14.827.212-1.28 2.606c-1.61-.497-3.172-.403-3.125.047.047.285-.214.782 2.297 1.137 3.743.592 3.434 7.556-2.842 7.035-1.729-.118-3.127-.569-4.287-1.256l1.397-2.795c1.966.971 3.86 1.54 4.003.569.166-1.208-2.06-.782-3.41-1.8-2.416-1.492-1.042-6.11 2.912-6.158 1.398-.095 2.843.142 4.335.615zm5.755 3.293c.048-1.303 2.89-1.303 3.08 0h-3.08zm1.398 7.532c3.742-.024 5.115-1.564 5.92-3.813h-3.789c-1.705 2.179-4.192.591-4.074-1.185h7.959c0-4.358-2.297-6.418-6.016-6.418-3.695 0-6.016 2.605-6.016 5.778 0 3.175 2.7 5.662 6.016 5.638zm-30.91-7.532c.048-1.303 2.89-1.303 3.08 0h-3.08zm1.398 7.532c3.719-.024 5.093-1.564 5.898-3.813h-3.766c-1.705 2.179-4.193.591-4.074-1.185h7.958c0-4.358-2.32-6.418-6.016-6.418C52.32 6.344 50 8.949 50 12.122c0 3.175 2.7 5.662 6.016 5.638zM33.183 6.722v3.411h1.492v7.319h4.192v-7.319H42.8v7.319h4.334v-7.366h2.7V6.77h-2.818V4.377c-.071-.875 1.99-1.231 2.7-.52V.35c-3.979-1.255-7.2.995-7.177 4.477v1.894h-3.695V4.377c-.047-.875 1.754-1.231 2.796-.52V.35c-3.459-1.019-7.154.663-7.13 4.453v1.895l-1.326.023zM65.276.588a2.3 2.3 0 0 1 2.298 2.297 2.3 2.3 0 0 1-2.298 2.298c-1.255 0-2.273-1.042-2.273-2.298 0-1.255 1.018-2.297 2.273-2.297zm-2.155 16.864h4.334V6.722h-4.334v10.73zM30.222.588c1.256 0 2.274 1.042 2.274 2.297 0 1.256-1.018 2.298-2.274 2.298a2.3 2.3 0 0 1-2.297-2.298A2.3 2.3 0 0 1 30.222.588zm-2.179 16.864h4.335V6.722h-4.335v10.73zM18.711 6.32c1.137 0 2.203.379 3.08.994v-.592h4.073l.024 10.73h-4.121l.023-.663a5.348 5.348 0 0 1-3.08.97c-3.03 0-5.517-2.557-5.517-5.707S15.68 6.32 18.71 6.32zm.877 3.41c1.373 0 2.487 1.042 2.487 2.322 0 1.278-1.114 2.321-2.487 2.321-1.35 0-2.464-1.043-2.464-2.321 0-1.28 1.114-2.321 2.464-2.321zM.308 2.01v15.442h4.168V12.43l3.553 5.02h4.927l-4.382-6.18c5.069-2.464 3.174-9.19-2.155-9.262H.309zm4.168 3.386v3.411h1.469c2.014-.38 1.468-3.269 0-3.41H4.476z" fill="#929CAC" mask="url(#0bzw8be6cd)"/>
        </g>
    </g>
</svg>
