<svg width="64" height="64" viewBox="0 0 64 64" xmlns="http://www.w3.org/2000/svg">
    <g fill="none" fill-rule="evenodd">
        <path d="M1.557 17.176C.547 21.844 0 26.826 0 32c0 5.174.547 10.156 1.557 14.824a20.403 20.403 0 0 0 15.62 15.619C21.843 63.453 26.826 64 32 64c5.174 0 10.156-.547 14.824-1.557a20.402 20.402 0 0 0 15.619-15.62C63.453 42.157 64 37.174 64 32c0-5.174-.547-10.156-1.557-14.824a20.403 20.403 0 0 0-15.62-15.619C42.157.547 37.174 0 32 0c-5.174 0-10.156.547-14.824 1.557a20.403 20.403 0 0 0-15.619 15.62z" fill="#FDF0E8"/>
        <path d="M18 39.5v-.1c-1.235-1.262-2-2.987-2-4.956a6.92 6.92 0 0 1 1.677-4.488 6.198 6.198 0 0 1-.177-1.512c0-1.982 1.016-3.781 2.57-4.869a5.995 5.995 0 0 1 2.874-4.237A5.496 5.496 0 0 1 28 16c1.575 0 2.944.663 4 1.725a5.496 5.496 0 0 1 9.056 1.613 6.003 6.003 0 0 1 2.875 4.237c1.55 1.088 2.569 2.887 2.569 4.869 0 .556-.063 1.044-.175 1.512A6.924 6.924 0 0 1 48 34.444c0 1.968-.763 3.694-2.056 4.956v.05c.056.019.056.031.056.05a5.997 5.997 0 0 1-4.944 5.906A5.736 5.736 0 0 1 36.25 48c-1.688 0-3.2-.725-4.25-1.931A5.677 5.677 0 0 1 27.75 48a5.736 5.736 0 0 1-4.806-2.594A5.999 5.999 0 0 1 18 39.5zm12.5-5.556H28c-.55 0-1 .506-1 1v.762A2.508 2.508 0 0 1 28.5 38a2.5 2.5 0 1 1-5 0c0-1.025.619-1.906 1.5-2.294v-.762c0-1.6 1.344-3 3-3h2.5v-6h-1.206c-.388.937-1.269 1.5-2.294 1.5-1.381 0-2.5-1.063-2.5-2.5 0-1.325 1.119-2.5 2.5-2.5 1.025 0 1.906.675 2.294 1.5H30.5v-2.5c0-1.325-1.119-2.5-2.5-2.5s-2.5 1.175-2.5 2.5v.097a3.005 3.005 0 0 0-2.5 2.903c0 .412.006.756.175 1.075-.488.05-.94.219-1.33.475a3.014 3.014 0 0 0-1.345 2.45c0 .962.404 1.781 1.043 2.331a3.996 3.996 0 0 0-2.184 2.069c-.23.506-.415 1.062-.415 1.656 0 1.494.876 2.8 2.09 3.487l.294.15a2.519 2.519 0 0 0-.104.22A3.003 3.003 0 0 0 25 42.331 2.753 2.753 0 0 0 27.75 45c1.381-.001 2.613-1.101 2.738-2.501h.012v-8.556zm5.5-15c-1.381 0-2.5 1.175-2.5 2.5v2.5H36c1.656 0 3 1.4 3 3v.762c.881.388 1.5 1.269 1.5 2.238 0 1.437-1.119 2.5-2.5 2.5s-2.5-1.063-2.5-2.5c0-.969.619-1.85 1.5-2.238v-.762c0-.494-.45-1-1-1h-2.5v10h3.206c.388-.825 1.269-1.5 2.294-1.5 1.381 0 2.5 1.175 2.5 2.556a2.5 2.5 0 0 1-2.5 2.5 2.508 2.508 0 0 1-2.294-1.5H33.5v4.5h.013c.125 1.4 1.3 2.5 2.737 2.5.894 0 1.681-.425 2.131-1.081.394-.444.6-.994.563-1.588.312.106.706.169 1.056.169a3.003 3.003 0 0 0 2.775-4.144c-.031-.075-.063-.15-.1-.218.1-.05.194-.1.288-.15A4 4 0 0 0 45 34.5c0-.594-.131-1.15-.356-1.656a4.008 4.008 0 0 0-2.188-2.069c.638-.55 1.044-1.369 1.044-2.331a3.012 3.012 0 0 0-1.344-2.45 3.257 3.257 0 0 0-1.331-.475c.112-.319.175-.663.175-1.075 0-.075-.006-.206-.025-.338-.175-1.306-1.181-2.348-2.531-2.565l.056-.041A2.5 2.5 0 0 0 36 19v-.056zm-9 7c.55 0 1-.394 1-1 0-.494-.45-1-1-1s-1 .506-1 1c0 .606.45 1 1 1zM26 39c.55 0 1-.45 1-1s-.45-1-1-1-1 .45-1 1 .45 1 1 1zm13-9.056c0-.494-.45-1-1-1s-1 .506-1 1c0 .606.45 1 1 1s1-.394 1-1zM39 38c.55 0 1-.45 1-1s-.45-1.056-1-1.056-1 .506-1 1.056.45 1 1 1z" fill="#ED701D"/>
    </g>
</svg>
