<svg width="64" height="64" viewBox="0 0 64 64" xmlns="http://www.w3.org/2000/svg">
    <g fill="none" fill-rule="evenodd">
        <path d="M1.557 17.176C.547 21.844 0 26.826 0 32c0 5.174.547 10.156 1.557 14.824a20.403 20.403 0 0 0 15.62 15.619C21.843 63.453 26.826 64 32 64c5.174 0 10.156-.547 14.824-1.557a20.402 20.402 0 0 0 15.619-15.62C63.453 42.157 64 37.174 64 32c0-5.174-.547-10.156-1.557-14.824a20.403 20.403 0 0 0-15.62-15.619C42.157.547 37.174 0 32 0c-5.174 0-10.156.547-14.824 1.557a20.403 20.403 0 0 0-15.619 15.62z" fill="#EAF1FB"/>
        <path d="M47.25 30.5h-1.833c-.692-6.257-5.66-11.225-11.917-11.917V16.75a.75.75 0 0 0-.75-.75h-1.5a.75.75 0 0 0-.75.75v1.833c-6.257.692-11.225 5.66-11.917 11.917H16.75a.75.75 0 0 0-.75.75v1.5c0 .414.336.75.75.75h1.833c.692 6.257 5.66 11.225 11.917 11.917v1.833c0 .414.336.75.75.75h1.5a.75.75 0 0 0 .75-.75v-1.833c6.257-.692 11.225-5.66 11.917-11.917h1.833a.75.75 0 0 0 .75-.75v-1.5a.75.75 0 0 0-.75-.75zM33.5 42.394V39.75a.75.75 0 0 0-.75-.75h-1.5a.75.75 0 0 0-.75.75v2.644a10.501 10.501 0 0 1-8.894-8.894h2.644a.75.75 0 0 0 .75-.75v-1.5a.75.75 0 0 0-.75-.75h-2.644a10.501 10.501 0 0 1 8.894-8.894v2.644c0 .414.336.75.75.75h1.5a.75.75 0 0 0 .75-.75v-2.644a10.501 10.501 0 0 1 8.894 8.894H39.75a.75.75 0 0 0-.75.75v1.5c0 .414.336.75.75.75h2.644a10.501 10.501 0 0 1-8.894 8.894zM34 32a2 2 0 1 1-4 0 2 2 0 0 1 4 0z" fill="#317ADE"/>
    </g>
</svg>
