<?xml version="1.0" encoding="UTF-8"?>
<svg width="64px" height="64px" viewBox="0 0 64 64" version="1.1" xmlns="http://www.w3.org/2000/svg" xmlns:xlink="http://www.w3.org/1999/xlink">
    <title>141C681F-73B0-4FF2-9CED-0FE060338CF9</title>
    <g id="UI-v2" stroke="none" stroke-width="1" fill="none" fill-rule="evenodd">
        <g id="Export" transform="translate(-1825.000000, -10555.000000)">
            <g id="Services-/-icon" transform="translate(1825.000000, 10555.000000)">
                <path d="M1.55712,17.17632 C0.54656,21.84448 0,26.82624 0,32 C0,37.17376 0.54656,42.15552 1.55712,46.82368 C3.24928,54.64 9.36064,60.75072 17.17632,62.44288 C21.84448,63.45344 26.82624,64 32,64 C37.17376,64 42.15552,63.45344 46.82368,62.44288 C54.64,60.75072 60.75136,54.64 62.44288,46.82368 C63.45344,42.15552 64,37.17376 64,32 C64,26.82624 63.45344,21.84448 62.44288,17.17632 C60.75072,9.36 54.64,3.24928 46.82368,1.55712 C42.15552,0.54656 37.17376,0 32,0 C26.82624,0 21.84448,0.54656 17.17632,1.55712 C9.36064,3.24928 3.24928,9.36 1.55712,17.17632 Z" id="base" fill="#FDF0E8"></path>
                <g id="award" transform="translate(16.000000, 16.000000)" fill="#ED701D">
                    <path d="M29.8961981,27.0756541 L25.999346,18.4757046 C26.2768443,17.7613338 26.5193429,17.5900848 27.3955878,16.71384 C28.1012683,16.0079432 28.3768993,14.9792702 28.1187085,14.0151059 C27.6005865,12.0807422 27.5999616,12.3494906 28.1187085,10.413877 C28.3768193,9.44971271 28.101199,8.42107968 27.3955878,7.71514289 C25.9780961,6.29640123 26.1130953,6.53139985 25.5943483,4.59516123 C25.3362702,3.63083947 24.5830567,2.87762602 23.618735,2.61954784 C21.6837463,2.10142589 21.917495,2.2364251 20.5000033,0.818933429 C19.7941131,0.112794758 18.7651135,-0.163098177 17.8006442,0.0951876836 C15.8712805,0.612059645 16.132529,0.613309638 14.1994153,0.0951876836 C13.234946,-0.163018105 12.2059864,0.112864096 11.5000562,0.818933429 C10.0838145,2.2351751 10.3169381,2.10080089 8.38132453,2.61954784 C7.41700277,2.87762602 6.66378931,3.63083947 6.40571114,4.59516123 C5.88758918,6.53014986 6.02258839,6.29640123 4.60509672,7.7138929 C3.89947587,8.41951375 3.6232275,9.4488827 3.88197597,10.412627 C4.40009793,12.3469907 4.40072293,12.0782422 3.88197597,14.0138559 C3.62378515,14.9780202 3.89941615,16.0066932 4.60509672,16.71259 C5.54884118,17.6569594 5.7313401,17.7788337 6.00133852,18.4744546 L2.10386143,27.0756541 C1.73136362,27.8975242 2.40698465,28.790644 3.38197891,28.790644 C3.40010381,28.790644 3.4188537,28.790019 3.43697859,28.789394 L7.99070182,28.6325199 L11.1238084,31.6106274 C11.4031818,31.8750009 11.7663046,32 12.1250525,32 C12.6581744,32 13.1825463,31.7256267 13.40942,31.2250047 L16.0000297,25.5081633 L18.5906395,31.2250047 C18.8175132,31.7256267 19.3418851,32 19.875007,32 C20.2343798,32 20.5975027,31.8750009 20.8756261,31.6106274 L24.0087327,28.6325199 L28.5624559,28.789394 C28.5812058,28.790019 28.5993307,28.790644 28.6174556,28.790644 C29.5924498,28.790019 30.2686959,27.8975242 29.8961981,27.0756541 Z M11.6081806,27.9312741 L9.14569503,25.5912878 L6.0213384,25.6987872 L7.87882748,21.5994363 C8.04070153,21.6794358 8.20257558,21.7600603 8.38132453,21.808185 C9.95256529,22.2294326 10.0556897,22.164433 11.0725587,23.181302 C11.6119305,23.7206738 12.3269263,24.0000472 13.0494221,24.0000472 C13.1712964,24.0000472 13.2912957,23.9656724 13.4125449,23.9500475 L11.6081806,27.9312741 L11.6081806,27.9312741 Z M13.0800469,20.9463151 C11.703805,19.5663232 10.9713093,19.3963242 9.27256929,18.9407019 C8.56382345,16.2969674 8.20757555,16.0732188 6.81008376,14.675727 C7.52945453,11.9926177 7.30320586,11.5894951 6.81008376,9.75138092 C8.74507239,7.8163923 8.76132229,7.39576977 9.27319428,5.48640599 C11.0913086,5.00015885 11.5900557,4.97265901 13.5387942,3.02392047 C16.2025285,3.73766627 16.6131511,3.52016755 18.4631403,3.02392047 C19.7937574,4.35453765 20.0662558,4.77266019 22.7281152,5.48640599 C23.436861,8.13014045 23.7931089,8.35388914 25.1906007,9.75200592 C24.4824799,12.3957404 24.6787287,12.7682382 25.1906007,14.677602 C23.8599835,16.0082191 23.441861,16.2813425 22.7281152,18.9432019 C21.0862498,19.3831993 20.3356293,19.5331984 18.9200126,20.9488151 C16.973774,19.8125718 14.7312872,19.9831958 13.0800469,20.9463151 L13.0800469,20.9463151 Z M24.1118571,25.6344126 L22.8543644,25.5912878 L20.3918789,27.9312741 L18.5875145,23.9500475 C18.7087638,23.9662974 18.8287631,24.0000472 18.9506374,24.0000472 C19.6725082,24.0000472 20.3881289,23.7206738 20.9275008,23.181302 C21.9531197,22.155683 22.0406192,22.2313076 23.618735,21.808185 C23.7968589,21.7606853 23.958733,21.6794358 24.121232,21.5994363 L25.9787211,25.6981622 L24.1118571,25.6344126 Z M21.9999945,12.0001177 C21.9999945,8.68638718 19.3137603,6.00015297 16.0000297,6.00015297 C12.6862992,6.00015297 10.000065,8.68638718 10.000065,12.0001177 C10.000065,15.3138482 12.6862992,18.0000824 16.0000297,18.0000824 C19.3137603,18.0000824 21.9999945,15.3138482 21.9999945,12.0001177 Z M16.0000297,15.0001001 C14.3456645,15.0001001 13.0000474,13.654483 13.0000474,12.0001177 C13.0000474,10.3457524 14.3456645,9.00013534 16.0000297,9.00013534 C17.654395,9.00013534 19.0000121,10.3457524 19.0000121,12.0001177 C19.0000121,13.654483 17.654395,15.0001001 16.0000297,15.0001001 Z"></path>
                </g>
            </g>
        </g>
    </g>
</svg>