<svg width="64" height="64" viewBox="0 0 64 64" xmlns="http://www.w3.org/2000/svg">
    <g fill="none" fill-rule="evenodd">
        <path d="M1.557 17.176C.547 21.844 0 26.826 0 32c0 5.174.547 10.156 1.557 14.824a20.403 20.403 0 0 0 15.62 15.619C21.843 63.453 26.826 64 32 64c5.174 0 10.156-.547 14.824-1.557a20.402 20.402 0 0 0 15.619-15.62C63.453 42.157 64 37.174 64 32c0-5.174-.547-10.156-1.557-14.824a20.403 20.403 0 0 0-15.62-15.619C42.157.547 37.174 0 32 0c-5.174 0-10.156.547-14.824 1.557a20.403 20.403 0 0 0-15.619 15.62z" fill="#EAF1FB"/>
        <path d="m18.084 21.105 10.47 10.47a.6.6 0 0 1 0 .85l-10.47 10.47a.6.6 0 0 1-.849 0l-.99-.99a.6.6 0 0 1 0-.849L25.28 32l-9.035-9.057a.6.6 0 0 1 0-.848l.99-.99a.6.6 0 0 1 .849 0zM48 42.6v-1.4a.6.6 0 0 0-.6-.6H31a.6.6 0 0 0-.6.6v1.4a.6.6 0 0 0 .6.6h16.4a.6.6 0 0 0 .6-.6z" fill="#317ADE"/>
    </g>
</svg>
