<svg width="64" height="64" viewBox="0 0 64 64" xmlns="http://www.w3.org/2000/svg">
    <g fill="none" fill-rule="evenodd">
        <path d="M1.557 17.176C.547 21.844 0 26.826 0 32c0 5.174.547 10.156 1.557 14.824a20.403 20.403 0 0 0 15.62 15.619C21.843 63.453 26.826 64 32 64c5.174 0 10.156-.547 14.824-1.557a20.402 20.402 0 0 0 15.619-15.62C63.453 42.157 64 37.174 64 32c0-5.174-.547-10.156-1.557-14.824a20.403 20.403 0 0 0-15.62-15.619C42.157.547 37.174 0 32 0c-5.174 0-10.156.547-14.824 1.557a20.403 20.403 0 0 0-15.619 15.62z" fill="#FDF0E8"/>
        <path d="M46.432 23.179c-.281-.477-.853-.778-1.469-.778-.367 0 .099-.123-6.731 2.178a19.526 19.526 0 0 1-12.465 0c-6.86-2.311-6.365-2.178-6.73-2.178-.616 0-1.188.301-1.469.778-2.09 3.547-2.09 10.897 0 14.444.281.477.853.778 1.469.778.367 0-.099.123 6.731-2.178.377-.127.76-.23 1.144-.334l-2.87 4.945a.556.556 0 0 0 .536.766h1.832l1.261 1.426a.557.557 0 0 0 .92-.172L32 36.801l3.41 6.052a.557.557 0 0 0 .92.173l1.26-1.426h1.831a.556.556 0 0 0 .537-.767l-2.87-4.945c.383.103.767.207 1.145.334 6.86 2.312 6.365 2.178 6.73 2.178.616 0 1.188-.3 1.47-.778 2.09-3.546 2.09-10.896-.001-14.443zM25.001 33.948l-5.65 1.904c-1.275-2.824-1.275-8.078 0-10.903l5.65 1.904c1.24.418 2.511.712 3.799.901v4.88l-.258.444c-1.199.191-2.383.48-3.541.87zm19.648 1.904-5.65-1.904a21.918 21.918 0 0 0-3.541-.87l-.257-.444v-4.879a21.904 21.904 0 0 0 3.798-.901l5.65-1.904c1.274 2.824 1.274 8.078 0 10.902z" fill="#ED701D"/>
    </g>
</svg>
