<svg width="64" height="64" viewBox="0 0 64 64" xmlns="http://www.w3.org/2000/svg">
    <g fill="none" fill-rule="evenodd">
        <path d="M1.557 17.176C.547 21.844 0 26.826 0 32c0 5.174.547 10.156 1.557 14.824a20.403 20.403 0 0 0 15.62 15.619C21.843 63.453 26.826 64 32 64c5.174 0 10.156-.547 14.824-1.557a20.402 20.402 0 0 0 15.619-15.62C63.453 42.157 64 37.174 64 32c0-5.174-.547-10.156-1.557-14.824a20.403 20.403 0 0 0-15.62-15.619C42.157.547 37.174 0 32 0c-5.174 0-10.156.547-14.824 1.557a20.403 20.403 0 0 0-15.619 15.62z" fill="#E8F8F1"/>
        <path d="M21.6 21.6h17.6V24h2.4v-3.2a1.605 1.605 0 0 0-1.6-1.6H20.8a1.605 1.605 0 0 0-1.6 1.6v12.8h-2.4a.8.8 0 0 0-.8.8v.8a3.207 3.207 0 0 0 3.196 3.2H33.6v-4.8h-12v-12zm24.6 4H37a1.8 1.8 0 0 0-1.8 1.8V43a1.8 1.8 0 0 0 1.8 1.8h9.2A1.8 1.8 0 0 0 48 43V27.4a1.8 1.8 0 0 0-1.8-1.8zm-.6 16.8h-8V28h8v14.4z" fill="#1EBF73"/>
    </g>
</svg>
