<svg width="64" height="64" viewBox="0 0 64 64" xmlns="http://www.w3.org/2000/svg">
    <g fill="none" fill-rule="evenodd">
        <path d="M1.557 17.176C.547 21.844 0 26.826 0 32c0 5.174.547 10.156 1.557 14.824a20.403 20.403 0 0 0 15.62 15.619C21.843 63.453 26.826 64 32 64c5.174 0 10.156-.547 14.824-1.557a20.402 20.402 0 0 0 15.619-15.62C63.453 42.157 64 37.174 64 32c0-5.174-.547-10.156-1.557-14.824a20.403 20.403 0 0 0-15.62-15.619C42.157.547 37.174 0 32 0c-5.174 0-10.156.547-14.824 1.557a20.403 20.403 0 0 0-15.619 15.62z" fill="#FDF0E8"/>
        <path d="m47.42 39.009-7.678-7.677 3.501-3.5 3.585-3.586a4 4 0 0 0 0-5.657L45.41 17.17a3.987 3.987 0 0 0-2.828-1.17c-1.024 0-2.048.39-2.828 1.17l-3.586 3.585-3.502 3.5L30.411 22l-5.42-5.42A1.978 1.978 0 0 0 23.59 16c-.507 0-1.014.194-1.401.58l-5.607 5.608a1.983 1.983 0 0 0 0 2.804l6.261 6.26 1.414 1.414-7.064 7.063-1.172 6.715a1.328 1.328 0 0 0 1.538 1.535l6.715-1.177 7.059-7.06 7.677 7.677c.387.386.894.58 1.402.58.507 0 1.015-.194 1.401-.58l5.607-5.607a1.982 1.982 0 0 0 0-2.803zm-5.545-19.716a.996.996 0 0 1 1.414 0l1.417 1.417a.996.996 0 0 1 0 1.414l-3.23 3.23-2.832-2.831 3.23-3.23zM24.963 29.13l-5.541-5.54 4.168-4.169 2.434 2.434-1.376 1.377a1 1 0 0 0 0 1.414l.706.707a1 1 0 0 0 1.415 0l1.377-1.377.145.145 2.256 2.256-4.168 4.168-1.416-1.415zm-2.142 14.88-3.435.602.6-3.434 16.538-16.535 2.832 2.832L22.82 44.011zm17.59.567-6.958-6.957 4.168-4.168 2.403 2.403-1.377 1.376a1 1 0 0 0 0 1.415l.707.707a1 1 0 0 0 1.414 0l1.377-1.377 2.434 2.434-4.168 4.167z" fill="#ED701D"/>
    </g>
</svg>
