<svg width="64" height="64" viewBox="0 0 64 64" xmlns="http://www.w3.org/2000/svg">
    <g fill="none" fill-rule="evenodd">
        <path d="M1.557 17.176C.547 21.844 0 26.826 0 32c0 5.174.547 10.156 1.557 14.824a20.403 20.403 0 0 0 15.62 15.619C21.843 63.453 26.826 64 32 64c5.174 0 10.156-.547 14.824-1.557a20.402 20.402 0 0 0 15.619-15.62C63.453 42.157 64 37.174 64 32c0-5.174-.547-10.156-1.557-14.824a20.403 20.403 0 0 0-15.62-15.619C42.157.547 37.174 0 32 0c-5.174 0-10.156.547-14.824 1.557a20.403 20.403 0 0 0-15.619 15.62z" fill="#E8F8F1"/>
        <path d="M36 26h-8c-1.106 0-2 .894-2 2v8a2 2 0 0 0 2 2h8a2 2 0 0 0 2-2v-8c0-1.106-.894-2-2-2zm-1 9h-6v-6h6v6zm11.5-1.5c.831 0 1.5-.669 1.5-1.5s-.672-1.5-1.5-1.5H44v-3h2.5c.831 0 1.5-.669 1.5-1.5s-.672-1.5-1.5-1.5H44V24a4 4 0 0 0-4-4h-.5v-2.5c0-.828-.669-1.5-1.5-1.5s-1.5.672-1.5 1.5V20h-3v-2.5c0-.828-.669-1.5-1.5-1.5s-1.5.672-1.5 1.5V20h-3v-2.5c0-.828-.669-1.5-1.5-1.5s-1.5.672-1.5 1.5V20H24a4 4 0 0 0-4 4v.5h-2.5c-.828 0-1.5.675-1.5 1.5s.672 1.5 1.5 1.5H20v3h-2.5c-.828 0-1.5.675-1.5 1.5s.672 1.5 1.5 1.5H20v3h-2.5c-.828 0-1.5.675-1.5 1.5s.672 1.5 1.5 1.5H20v.5a4 4 0 0 0 4 4h.5v2.5a1.5 1.5 0 0 0 3 0V44h3v2.5a1.5 1.5 0 0 0 3 0V44h3v2.5a1.5 1.5 0 0 0 3 0V44h.5a4 4 0 0 0 4-4v-.5h2.5a1.5 1.5 0 0 0 0-3H44v-3h2.5zM41 40c0 .551-.449 1-1 1H24c-.551 0-1-.449-1-1V24c0-.551.449-1 1-1h16c.551 0 1 .449 1 1v16z" fill="#1EBF73"/>
    </g>
</svg>
