<svg width="64" height="64" viewBox="0 0 64 64" xmlns="http://www.w3.org/2000/svg">
    <g fill="none" fill-rule="evenodd">
        <path d="M1.557 17.176C.547 21.844 0 26.826 0 32c0 5.174.547 10.156 1.557 14.824a20.403 20.403 0 0 0 15.62 15.619C21.843 63.453 26.826 64 32 64c5.174 0 10.156-.547 14.824-1.557a20.402 20.402 0 0 0 15.619-15.62C63.453 42.157 64 37.174 64 32c0-5.174-.547-10.156-1.557-14.824a20.403 20.403 0 0 0-15.62-15.619C42.157.547 37.174 0 32 0c-5.174 0-10.156.547-14.824 1.557a20.403 20.403 0 0 0-15.619 15.62z" fill="#E8F8F1"/>
        <path d="m46.336 26.596-12.9-3.979a4.865 4.865 0 0 0-2.872 0l-12.9 3.979C16.669 26.902 16 27.788 16 28.8c0 1.012.669 1.899 1.664 2.206l1.132.348a3.96 3.96 0 0 0-.285.816 1.59 1.59 0 0 0-.911 1.43c0 .538.284.992.693 1.282l-1.276 5.743a.8.8 0 0 0 .78.974h2.806a.8.8 0 0 0 .781-.974l-1.277-5.743c.409-.29.693-.744.693-1.283 0-.53-.274-.977-.671-1.268.056-.177.148-.333.242-.491l2.744.846L22.4 38.4c0 1.767 4.298 3.2 9.6 3.2s9.6-1.432 9.6-3.2l-.714-5.713 5.45-1.681C47.332 30.699 48 29.813 48 28.8c0-1.012-.669-1.898-1.664-2.204zm-7.214 11.328c-2.985 1.71-11.295 1.688-14.243 0l.565-4.518 5.12 1.579a4.857 4.857 0 0 0 2.873 0l5.12-1.58.565 4.519zM32.73 32.69a2.495 2.495 0 0 1-1.46 0l-7.539-2.326 8.416-1.578a.8.8 0 1 0-.294-1.572l-10.19 1.91a3.96 3.96 0 0 0-.935.314L18.66 28.8l12.61-3.89a2.495 2.495 0 0 1 1.46 0l12.611 3.892L32.73 32.69z" fill="#1EBF73"/>
    </g>
</svg>
