<svg width="64" height="64" viewBox="0 0 64 64" xmlns="http://www.w3.org/2000/svg">
    <g fill="none" fill-rule="evenodd">
        <path d="M1.557 17.176C.547 21.844 0 26.826 0 32c0 5.174.547 10.156 1.557 14.824a20.403 20.403 0 0 0 15.62 15.619C21.843 63.453 26.826 64 32 64c5.174 0 10.156-.547 14.824-1.557a20.402 20.402 0 0 0 15.619-15.62C63.453 42.157 64 37.174 64 32c0-5.174-.547-10.156-1.557-14.824a20.403 20.403 0 0 0-15.62-15.619C42.157.547 37.174 0 32 0c-5.174 0-10.156.547-14.824 1.557a20.403 20.403 0 0 0-15.619 15.62z" fill="#E8F8F1"/>
        <path d="M21.115 26.173c-.276.3-.664.481-1.076.438-.41.068-.808-.094-1.1-.438l-2.5-2.5c-.585-.531-.585-1.481 0-2.067a1.5 1.5 0 0 1 2.122 0l1.381 1.38 3.445-3.823a1.5 1.5 0 0 1 2.12-.111c.612.554.662 1.502.105 2.119l-4.497 5.002zm0 10c-.276.3-.664.481-1.076.438-.41.068-.808-.094-1.1-.438l-2.5-2.5c-.585-.531-.585-1.481 0-2.069a1.508 1.508 0 0 1 2.122 0l1.381 1.382 3.445-3.825a1.5 1.5 0 0 1 2.226 2.012l-4.498 5zM29.5 24.167c-.831 0-1.5-.669-1.5-1.5 0-.828.669-1.5 1.5-1.5h17c.831 0 1.5.672 1.5 1.5 0 .831-.669 1.5-1.5 1.5h-17zm-1.5 8.5c0-.831.669-1.5 1.5-1.5h17c.831 0 1.5.669 1.5 1.5s-.669 1.5-1.5 1.5h-17c-.831 0-1.5-.669-1.5-1.5zm-2 10c0-.831.669-1.5 1.5-1.5h19c.831 0 1.5.669 1.5 1.5s-.669 1.5-1.5 1.5h-19c-.831 0-1.5-.669-1.5-1.5zm-6 2a1.999 1.999 0 1 1 0-4 1.999 1.999 0 1 1 0 4z" fill="#1EBF73"/>
    </g>
</svg>
