<svg width="64" height="64" viewBox="0 0 64 64" xmlns="http://www.w3.org/2000/svg">
    <g fill="none" fill-rule="evenodd">
        <path d="M1.557 17.176C.547 21.844 0 26.826 0 32c0 5.174.547 10.156 1.557 14.824a20.403 20.403 0 0 0 15.62 15.619C21.843 63.453 26.826 64 32 64c5.174 0 10.156-.547 14.824-1.557a20.402 20.402 0 0 0 15.619-15.62C63.453 42.157 64 37.174 64 32c0-5.174-.547-10.156-1.557-14.824a20.403 20.403 0 0 0-15.62-15.619C42.157.547 37.174 0 32 0c-5.174 0-10.156.547-14.824 1.557a20.403 20.403 0 0 0-15.619 15.62z" fill="#FDF0E8"/>
        <path d="M26.855 43.104c-1.19 0-2.08-.175-2.875-.374a1.204 1.204 0 0 1-.904-1.165V39.98c-.47-.22-.92-.48-1.345-.78l-1.335.77a1.2 1.2 0 0 1-1.475-.215c-1.77-1.88-2.21-2.93-2.86-4.925a1.204 1.204 0 0 1 .55-1.42l1.34-.75a8.972 8.972 0 0 1 0-1.555l-1.34-.755c-.5-.28-.73-.875-.55-1.42.655-2 1.095-3.045 2.86-4.925.38-.405.99-.495 1.475-.215l1.335.77c.425-.3.875-.56 1.345-.78v-1.51c0-.555.38-1.04.92-1.164 2.21-.525 3.5-.525 5.714 0 .54.13.92.61.92 1.164v1.52c.47.22.92.48 1.345.78l1.335-.77a1.208 1.208 0 0 1 1.48.22c1.305 1.395 2.42 2.925 2.84 5.015.1.49-.12.99-.545 1.255l-1.33.825a8.972 8.972 0 0 1 0 1.555l1.33.825c.42.26.645.76.545 1.245-.405 2.025-1.48 3.565-2.845 5.03-.38.405-.99.495-1.475.215l-1.335-.77c-.425.3-.875.56-1.345.78v1.585c0 .55-.37 1.03-.905 1.165-.79.19-1.68.36-2.87.36zm-1.38-2.534a8.778 8.778 0 0 0 2.755 0v-2.24l.8-.285c.76-.27 1.455-.67 2.065-1.195l.645-.55 1.94 1.12a8.756 8.756 0 0 0 1.38-2.385l-1.94-1.12.155-.835c.145-.795.145-1.6 0-2.395l-.155-.835 1.94-1.12a8.756 8.756 0 0 0-1.38-2.385l-1.94 1.12-.645-.55a6.483 6.483 0 0 0-2.065-1.195l-.8-.285V23.2a8.778 8.778 0 0 0-2.755 0v2.24l-.8.285c-.76.27-1.454.67-2.064 1.195l-.645.55-1.94-1.12a8.756 8.756 0 0 0-1.38 2.385l1.94 1.12-.155.835a6.647 6.647 0 0 0 0 2.395l.155.835-1.94 1.12c.33.86.795 1.67 1.38 2.385l1.94-1.12.645.55c.615.525 1.31.93 2.064 1.195l.8.285v2.235zm1.355-4.255c-1.13 0-2.26-.43-3.12-1.29a4.418 4.418 0 0 1 0-6.24 4.418 4.418 0 0 1 6.24 0 4.418 4.418 0 0 1 0 6.24 4.415 4.415 0 0 1-3.12 1.29zm0-6.42a2.013 2.013 0 1 0 1.42 3.435 2.013 2.013 0 0 0-1.42-3.435zm21.094-6.445c-.05-.29-.3-.5-.595-.5h-.805a4.216 4.216 0 0 0-.775-1.34l.4-.694a.605.605 0 0 0-.135-.765 5.439 5.439 0 0 0-1.564-.91.598.598 0 0 0-.735.265l-.4.695a4.223 4.223 0 0 0-1.545 0l-.4-.695a.611.611 0 0 0-.735-.265 5.465 5.465 0 0 0-1.57.91.599.599 0 0 0-.135.765l.4.694c-.335.39-.6.845-.775 1.34h-.805a.602.602 0 0 0-.595.51c-.1.61-.095 1.225 0 1.81.05.29.3.5.595.5h.805c.175.495.44.95.775 1.34l-.4.695a.605.605 0 0 0 .135.765c.465.385.995.695 1.57.91a.598.598 0 0 0 .735-.265l.4-.695c.51.095 1.035.095 1.545 0l.4.695c.15.255.46.365.735.265a5.465 5.465 0 0 0 1.57-.91.599.599 0 0 0 .134-.765l-.4-.695c.335-.39.6-.845.775-1.34h.805c.295 0 .55-.215.595-.51.095-.61.095-1.22-.005-1.81zm-5.39 2.51c-.884 0-1.6-.715-1.6-1.6 0-.885.716-1.6 1.6-1.6.886 0 1.6.715 1.6 1.6 0 .885-.714 1.6-1.6 1.6zm5.39 12.77c-.05-.29-.3-.5-.595-.5h-.805a4.216 4.216 0 0 0-.775-1.34l.4-.695a.605.605 0 0 0-.135-.765 5.465 5.465 0 0 0-1.57-.91.598.598 0 0 0-.734.265l-.4.695a4.223 4.223 0 0 0-1.545 0l-.4-.695a.611.611 0 0 0-.735-.265 5.465 5.465 0 0 0-1.57.91.599.599 0 0 0-.135.765l.4.695c-.335.39-.6.845-.775 1.34h-.805a.602.602 0 0 0-.595.51c-.1.61-.095 1.225 0 1.81.05.29.3.5.595.5h.805c.175.495.44.95.775 1.34l-.4.694a.605.605 0 0 0 .135.765c.465.385.995.695 1.57.91a.598.598 0 0 0 .735-.265l.4-.695c.51.095 1.035.095 1.545 0l.4.695c.15.255.46.365.735.265a5.465 5.465 0 0 0 1.57-.91.599.599 0 0 0 .134-.765l-.4-.694c.335-.39.6-.845.775-1.34h.805c.295 0 .55-.215.595-.51.1-.605.1-1.22 0-1.81zm-5.39 2.51c-.884 0-1.6-.715-1.6-1.6 0-.885.716-1.6 1.6-1.6.886 0 1.6.715 1.6 1.6 0 .885-.714 1.6-1.6 1.6z" fill="#ED701D"/>
    </g>
</svg>
