<svg width="250" height="80" viewBox="0 0 250 80" xmlns="http://www.w3.org/2000/svg">
    <g fill="none" fill-rule="evenodd">
        <path fill="none" d="M0 0h250v80H0z"/>
        <path d="m62.434 33.805 9.398-.012v-5.87H61.4a6.68 6.68 0 0 0-3.132 12.78l6.69 3.34c1.575.786 1.321 2.215-.46 2.215h-9.554v-2.951L47 49.153 54.944 55v-2.951l11.36.136a6.68 6.68 0 0 0 6.68-6.68c0-1.88-.376-3.913-2.074-5.112l-8.66-4.515c-.697-.363-.602-2.073.184-2.073zm31.652-5.796v15.595c0 2.753-.93 4.953-2.799 6.6-1.861 1.646-4.345 2.47-7.445 2.47-3.093 0-5.454-.8-7.09-2.399-1.635-1.598-2.456-3.9-2.456-6.899V28.01h7.222v16.127a2.68 2.68 0 0 0 2.673 2.673 2.68 2.68 0 0 0 2.673-2.673V28.01h7.222zm15.46 24.055a6.68 6.68 0 0 0 3.219-12.535 6.331 6.331 0 0 0-3.218-11.477v-.066h-13.41v24.078h13.41zm-6.253-9.957h3.465a2.516 2.516 0 0 1 2.509 2.509 2.349 2.349 0 0 1-2.342 2.342h-3.632v-4.85zm0-8.81h2.9c1.154 0 2.098.945 2.098 2.099 0 1.078-.881 1.96-1.959 1.96h-3.04v-4.06zm87.657.445v4.95c0 3.45-2.73 6.293-6.137 6.474v7.038h-7.771v-7.056c-3.29-.302-5.89-3.09-5.89-6.456v-10.74h7.103v9.601a2.283 2.283 0 0 0 2.276 2.277h1.04a2.283 2.283 0 0 0 2.277-2.277v-5.098h.026l-.001-.099a4.405 4.405 0 0 1 4.405-4.405h6.131V25l7.944 5.847-7.944 5.846v-2.95h-3.459zM156.67 52.11h-7.257V36.815c0-2.95.915-5.246 2.752-6.881 1.836-1.635 4.417-2.452 7.742-2.452 3.209 0 5.578.74 7.114 2.224 1.536 1.484 2.3 3.768 2.3 6.863v15.54h-7.256v-7.032h-5.395v7.033zm5.395-12.23v-4.034a2.706 2.706 0 0 0-2.698-2.698 2.706 2.706 0 0 0-2.697 2.698v4.034h5.395zM147.64 28.059v17.32c0 2.17-.76 3.93-2.288 5.294-1.528 1.364-3.5 2.05-5.922 2.05-.153 0-.304-.007-.452.003-1.308.09-4.126.128-6.23-1.784-2.033 2.061-4.852 1.847-5.898 1.805a29.653 29.653 0 0 0-1.186-.024c-2.535 0-4.479-.686-5.83-2.05-1.346-1.364-2.022-3.33-2.022-5.89V28.06h7.159v16.424c0 1.17.958 2.128 2.128 2.128 1.17 0 2.129-.958 2.129-2.128V28.059h6.83v16.424c0 1.17.958 2.128 2.128 2.128 1.171 0 2.129-.958 2.129-2.128V28.059h7.325zM188.157 48.6c.302 0 .596.077.884.233.287.154.512.376.672.664.16.289.24.59.24.902 0 .31-.078.609-.237.894-.158.286-.38.509-.664.666a1.818 1.818 0 0 1-.895.238c-.312 0-.61-.08-.896-.238a1.673 1.673 0 0 1-.666-.666 1.817 1.817 0 0 1-.238-.894c0-.312.08-.613.241-.902.162-.288.387-.51.674-.664a1.84 1.84 0 0 1 .885-.233zm0 .298c-.253 0-.5.065-.739.194-.239.13-.426.315-.56.556-.136.24-.204.491-.204.751s.067.508.2.745c.132.238.318.423.556.556.239.132.487.2.747.2.258 0 .507-.068.746-.2.238-.133.423-.318.555-.556.132-.237.198-.485.198-.745s-.068-.51-.202-.751a1.382 1.382 0 0 0-.561-.556 1.536 1.536 0 0 0-.736-.194zm-.79 2.494V49.46h.665c.228 0 .392.018.494.054a.478.478 0 0 1 .244.187.51.51 0 0 1-.062.651.6.6 0 0 1-.402.177.516.516 0 0 1 .164.102c.078.076.173.204.286.383l.236.379h-.379l-.172-.305c-.135-.24-.245-.39-.328-.45a.398.398 0 0 0-.25-.065h-.184v.82h-.312zm.312-1.089h.38c.18 0 .304-.027.37-.08a.262.262 0 0 0 .1-.213.259.259 0 0 0-.049-.153.28.28 0 0 0-.131-.101.99.99 0 0 0-.314-.033h-.356v.58z" fill="#929CAC" fill-rule="nonzero"/>
    </g>
</svg>
