<svg width="250" height="80" viewBox="0 0 250 80" xmlns="http://www.w3.org/2000/svg">
    <g fill="none" fill-rule="evenodd">
        <path fill="none" d="M0 0h250v80H0z"/>
        <path d="M38.325 27.13v-1.526a.255.255 0 0 0-.254-.253H20.254a.255.255 0 0 0-.254.253v1.527c0 .138.114.253.254.253h7.798v20.46c0 .138.11.254.254.254h1.716c.139 0 .252-.116.252-.254v-20.46h7.797c.14 0 .254-.115.254-.253m5.509 6.426c3.704 0 5.969 2.065 6.102 5.537H37.72c.422-3.322 2.846-5.537 6.115-5.537m0-1.938c-4.702 0-8.24 3.598-8.24 8.365 0 4.91 3.387 8.335 8.24 8.335 2.837 0 5.51-1.197 6.977-3.122a.253.253 0 0 0-.042-.352l-1.114-.893a.283.283 0 0 0-.19-.052.27.27 0 0 0-.172.1c-1.192 1.58-3.6 2.286-5.46 2.286-3.292 0-5.716-2.128-6.114-5.319h13.876a.247.247 0 0 0 .25-.224c.275-2.752-.352-5.055-1.81-6.662-1.438-1.588-3.643-2.462-6.201-2.462m13.365-6.297h-1.558a.253.253 0 0 0-.254.252v22.27c0 .138.115.254.254.254h1.558a.256.256 0 0 0 .255-.254v-22.27a.252.252 0 0 0-.255-.252m11.456 8.235c3.707 0 5.968 2.065 6.104 5.537H62.54c.423-3.322 2.848-5.537 6.116-5.537m0-1.938c-4.7 0-8.241 3.598-8.241 8.365 0 4.91 3.39 8.335 8.24 8.335 2.836 0 5.51-1.197 6.979-3.122a.255.255 0 0 0-.045-.352l-1.111-.893a.284.284 0 0 0-.192-.052.275.275 0 0 0-.17.1c-1.193 1.58-3.6 2.286-5.46 2.286-3.294 0-5.716-2.128-6.116-5.319h13.879a.252.252 0 0 0 .252-.224c.273-2.752-.357-5.055-1.813-6.662-1.438-1.588-3.642-2.462-6.202-2.462m14.916 7.918 7.752-7.16a.256.256 0 0 0 .08-.186v-.062a.253.253 0 0 0-.251-.257h-2.068a.242.242 0 0 0-.171.07l-6.987 6.478V25.574a.253.253 0 0 0-.254-.252h-1.529a.25.25 0 0 0-.252.252v22.27c0 .138.113.254.252.254h1.529a.257.257 0 0 0 .254-.254v-7.126l8.005 7.315c.046.04.106.065.17.065h1.974c.14 0 .253-.116.253-.254v-.095a.26.26 0 0 0-.08-.187l-8.677-8.025zm17.097 6.75c-3.655 0-6.204-2.579-6.204-6.271 0-3.743 2.608-6.46 6.204-6.46 3.597 0 6.204 2.717 6.204 6.46 0 3.692-2.55 6.27-6.204 6.27m0-14.701c-4.775 0-8.238 3.547-8.238 8.43 0 4.89 3.386 8.304 8.238 8.304 4.852 0 8.238-3.414 8.238-8.303 0-4.884-3.467-8.431-8.238-8.431m29.845-.03c-2.541 0-4.756 1.339-5.806 3.466-.978-2.184-3.116-3.466-5.836-3.466-2.054 0-3.793.834-4.88 2.315l-.021-1.745a.254.254 0 0 0-.253-.253h-1.465a.258.258 0 0 0-.255.258v15.714c0 .138.116.254.255.254h1.56a.256.256 0 0 0 .253-.254v-9.321c0-2.924 1.963-4.966 4.774-4.966 2.829 0 4.804 2.042 4.804 4.966v9.321c0 .138.114.254.255.254h1.556a.26.26 0 0 0 .258-.254v-9.321c0-2.942 1.974-4.998 4.801-4.998 2.81 0 4.774 2.018 4.774 4.901v9.418c0 .138.116.254.253.254h1.56a.258.258 0 0 0 .255-.254v-9.418c0-4.048-2.814-6.87-6.842-6.87m28.077 3.807-.244-.05c-3.986-.743-6.601-1.42-6.601-3.95 0-4.144 5.827-4.266 6.486-4.266 2.478.033 4.982.407 6.535 2.904a.247.247 0 0 0 .342.084l1.4-.825a.253.253 0 0 0 .119-.161.265.265 0 0 0-.035-.2C164.425 25.66 161.687 25 158.235 25c-3.007 0-5.7.914-7.201 2.45-1.037 1.055-1.548 2.398-1.517 3.975 0 4.327 4.294 5.165 8.446 5.977 3.513.673 7.145 1.366 7.113 4.523 0 4.022-4.781 4.454-6.84 4.454-2.687 0-6.083-1.34-7.378-3.899a.254.254 0 0 0-.34-.112l-1.524.762a.253.253 0 0 0-.117.341c1.852 3.67 6.047 4.978 9.358 4.978 2.118 0 9.032-.471 9.065-6.49 0-4.924-4.426-5.774-8.71-6.596m19.348-3.651-.165.004c-2.144 0-3.945.846-4.987 2.308l-.04-1.903a.252.252 0 0 0-.252-.249h-1.467a.255.255 0 0 0-.25.257v15.715c0 .138.113.254.25.254h1.56c.141 0 .255-.116.255-.254V38.68c0-2.77 2.17-4.966 4.931-4.993.939 0 1.792.233 2.539.691a.28.28 0 0 0 .199.031.27.27 0 0 0 .156-.121l.7-1.275a.253.253 0 0 0-.089-.341c-1.056-.634-2.179-.96-3.34-.96m13.55 1.91c2.986 0 6.176 1.672 6.176 6.362 0 3.847-2.423 6.334-6.177 6.334-3.574 0-6.172-2.679-6.172-6.363 0-3.67 2.598-6.334 6.172-6.334m.065-2.002c-2.71 0-4.944 1.087-6.266 3.013v-9.058a.253.253 0 0 0-.255-.252h-1.527c-.14 0-.255.11-.255.252v22.27c0 .138.116.254.255.254h1.527a.257.257 0 0 0 .255-.254V45.25c1.4 1.933 3.736 3.104 6.3 3.104 4.85 0 8.11-3.363 8.11-8.369 0-5.004-3.273-8.365-8.144-8.365m13.526 16.225v-15.78a.25.25 0 0 0-.252-.253h-1.559a.251.251 0 0 0-.254.253v15.78c0 .138.11.254.254.254h1.559a.253.253 0 0 0 .252-.254m-1-19.347c.75 0 1.51-.512 1.51-1.492 0-1.963-3.022-1.963-3.022 0 0 .98.76 1.492 1.511 1.492m4.76-1.652c0 .983.758 1.495 1.509 1.495.75 0 1.512-.512 1.512-1.495 0-1.96-3.022-1.96-3.022 0m2.292 4.997h-1.529a.255.255 0 0 0-.255.252v17.278c0 2.372-.386 3.657-2.418 3.657-.784 0-1.564-.21-2.263-.6a.254.254 0 0 0-.214-.019.247.247 0 0 0-.15.157l-.445 1.335a.253.253 0 0 0 .12.306c1.072.57 1.9.792 2.952.792 1.409 0 2.45-.36 3.186-1.101.885-.9 1.29-2.339 1.266-4.527V32.094a.253.253 0 0 0-.25-.252m11.358 14.476c-3.579 0-6.175-2.664-6.175-6.334 0-3.65 2.596-6.297 6.175-6.297 4.333 0 6.307 3.272 6.307 6.312 0 1.662-.56 3.208-1.576 4.352-1.143 1.286-2.777 1.967-4.731 1.967m7.983-14.446h-1.556a.258.258 0 0 0-.258.258v2.543c-1.346-1.89-3.592-2.992-6.17-2.992-4.697 0-8.241 3.57-8.241 8.303 0 4.772 3.544 8.369 8.242 8.369 2.512 0 4.675-1.07 6.17-3.034v2.525c0 .138.115.254.257.254h1.556a.255.255 0 0 0 .254-.254V32.13a.255.255 0 0 0-.254-.258" fill="#929CAC" fill-rule="nonzero"/>
    </g>
</svg>
