<svg width="250" height="80" viewBox="0 0 250 80" xmlns="http://www.w3.org/2000/svg">
    <g fill="none" fill-rule="evenodd">
        <path fill="none" d="M0 0h250v80H0z"/>
        <g fill="#929CAC" fill-rule="nonzero">
            <path d="M89.355 37.909c0 4.02-2.84 5.762-6.025 5.762-3.186 0-6.037-1.73-6.037-5.762v-7.314h3.436v7.015c0 2.04 1.121 2.864 2.6 2.864 1.48 0 2.602-.824 2.602-2.864v-7.015h3.424v7.314zM104.387 35.224v8.113h-3.436v-7.003c0-1.837-.919-2.852-2.482-2.852a2.606 2.606 0 0 0-2.696 2.888v6.979h-3.436V30.607h3.34v1.503a4.257 4.257 0 0 1 3.747-1.837 4.748 4.748 0 0 1 4.963 4.522v.43M110.793 43.337h-3.436V30.595h3.436v12.742zm.466-16.917a2.195 2.195 0 0 1-2.207 2.171 2.19 2.19 0 0 1 .012-4.378 2.174 2.174 0 0 1 2.195 2.159v.048M123.13 33.65h-4.618v4.652c0 1.587.847 2.172 1.91 2.172a5.062 5.062 0 0 0 2.397-.824l1.265 2.685a7.057 7.057 0 0 1-4.224 1.336c-3.161 0-4.784-1.79-4.784-5.094v-4.928h-2.457v-3.054h2.457v-3.794h3.436v3.794h4.617v3.054zM128.39 35.761h5.644a2.835 2.835 0 0 0-5.643 0m9.09 1.181c0 .382-.023.776-.071 1.157h-9.043a3.083 3.083 0 0 0 3.28 2.649 5.102 5.102 0 0 0 3.222-1.229l2.016 2.207a7.715 7.715 0 0 1-5.44 1.933c-3.472.179-6.443-2.493-6.622-5.965a6.693 6.693 0 0 1 0-.692c0-4.009 2.637-6.753 6.455-6.753 3.686 0 6.192 2.72 6.204 6.693M142.492 36.954a3.3 3.3 0 1 0 6.586-.43 3.283 3.283 0 0 0-3.293-3.077 3.271 3.271 0 0 0-3.293 3.269.799.799 0 0 0 0 .238m6.407-5.034v-7.517h3.424v18.934h-3.353v-1.408a4.716 4.716 0 0 1-3.817 1.742c-3.52 0-6.168-2.887-6.168-6.705s2.66-6.705 6.168-6.705a4.586 4.586 0 0 1 3.746 1.659M159.791 41.094a2.548 2.548 0 0 1-2.54 2.565 2.548 2.548 0 0 1-2.566-2.541 2.548 2.548 0 0 1 2.541-2.565h.024a2.615 2.615 0 0 1 2.541 2.541M173.272 32.66l-2.47 2.063a3.525 3.525 0 0 0-2.72-1.276 3.524 3.524 0 0 0-3.185 3.841 3.536 3.536 0 0 0 3.174 3.186 3.737 3.737 0 0 0 2.78-1.289l2.445 2.088a6.308 6.308 0 0 1-5.118 2.398 6.71 6.71 0 0 1-6.705-6.705 6.703 6.703 0 0 1 6.705-6.705 6.163 6.163 0 0 1 5.094 2.398M175.229 24.391h3.436v18.945h-3.436zM184.463 36.953c.072 1.873 1.635 3.34 3.508 3.269 1.873-.072 3.34-1.635 3.269-3.508a3.38 3.38 0 0 0-3.4-3.269 3.348 3.348 0 0 0-3.389 3.281c0 .072 0 .155.012.227m10.284 0c.107 3.806-2.899 6.98-6.705 7.087-3.806.107-6.979-2.9-7.086-6.705-.108-3.806 2.899-6.98 6.704-7.087h.18a6.63 6.63 0 0 1 6.907 6.347c0 .12.012.239 0 .358M208.992 37.907c0 4.02-2.84 5.763-6.025 5.763-3.185 0-6.037-1.73-6.037-5.763v-7.313h3.436v7.015c0 2.04 1.122 2.863 2.601 2.863 1.48 0 2.6-.823 2.6-2.863v-7.015h3.425v7.313zM214.695 36.953a3.3 3.3 0 1 0 6.585-.43 3.292 3.292 0 0 0-3.293-3.078 3.271 3.271 0 0 0-3.292 3.27.799.799 0 0 0 0 .238m6.406-5.035v-7.516h3.424v18.934h-3.352v-1.408a4.716 4.716 0 0 1-3.818 1.742c-3.52 0-6.168-2.887-6.168-6.705s2.66-6.705 6.168-6.705a4.586 4.586 0 0 1 3.746 1.658M78.558 53.37h-.967v-4.415h.967v4.414zm.19-5.942c0 .37-.298.668-.668.668h-.023a.647.647 0 0 1-.669-.644v-.024a.667.667 0 0 1 .657-.68h.023c.37 0 .68.298.68.668v.012M83.998 50.59v2.767h-.967V50.9c0-.74-.381-1.158-1.026-1.158a1.094 1.094 0 0 0-1.145 1.038v2.565h-.966v-4.414h.954v.537c.31-.442.823-.68 1.36-.656a1.698 1.698 0 0 1 1.79 1.61.39.39 0 0 0 0 .167M89.378 50.59v2.767h-.966V50.9c0-.74-.382-1.158-1.026-1.158a1.094 1.094 0 0 0-1.145 1.038v2.565h-.967v-4.414h.955v.537c.31-.43.823-.68 1.36-.656a1.698 1.698 0 0 1 1.79 1.61c-.012.072 0 .12 0 .167M91.335 51.162a1.388 1.388 0 0 0 1.42 1.36 1.38 1.38 0 0 0 1.36-1.42 1.388 1.388 0 0 0-1.384-1.36 1.342 1.342 0 0 0-1.384 1.325c-.012.023-.012.06-.012.095m3.758 0c.036 1.312-1.014 2.398-2.326 2.434-1.313.036-2.398-1.014-2.434-2.327-.036-1.312 1.014-2.398 2.326-2.433h.048a2.293 2.293 0 0 1 2.374 2.207.406.406 0 0 1 .012.119M98.374 53.358h-1.145l-1.778-4.414h1.05l1.3 3.412 1.3-3.412h1.027z"/>
            <g>
                <path d="M101.495 51.163a1.333 1.333 0 0 0 2.66-.155 1.326 1.326 0 0 0-1.336-1.253 1.321 1.321 0 0 0-1.336 1.313c0 .024 0 .06.012.095m3.567 2.195h-.966v-.525c-.334.43-.847.669-1.384.645a2.322 2.322 0 0 1-2.207-2.434 2.327 2.327 0 0 1 2.207-2.207 1.675 1.675 0 0 1 1.384.644v-.537h.966v4.414zM109.393 49.827h-1.694v1.92c0 .597.31.824.704.824.322-.012.62-.12.894-.298l.382.775a2.4 2.4 0 0 1-1.36.442c-1.002 0-1.587-.537-1.587-1.718v-1.945h-.883v-.87h.883V47.62h.967v1.336h1.694v.871zM111.35 53.358h-.967v-4.414h.966v4.414zm.202-5.929c0 .37-.298.668-.656.668h-.024a.647.647 0 0 1-.668-.644v-.024a.667.667 0 0 1 .656-.68h.024c.37 0 .68.298.68.668-.012 0-.012 0-.012.012M113.354 51.163a1.388 1.388 0 0 0 1.42 1.36 1.388 1.388 0 0 0 1.36-1.42 1.388 1.388 0 0 0-1.385-1.36c-.751-.023-1.36.573-1.383 1.325-.012.024-.012.06-.012.095m3.77 0c.035 1.313-1.014 2.398-2.327 2.434-1.312.036-2.398-1.014-2.434-2.326-.035-1.313 1.014-2.398 2.327-2.434h.048a2.303 2.303 0 0 1 2.386 2.207c-.012.036 0 .071 0 .12M122.23 50.59v2.768h-.967v-2.457c0-.74-.381-1.158-1.026-1.158a1.102 1.102 0 0 0-1.145 1.038v2.577h-.966v-4.414h.954v.537c.31-.43.823-.68 1.36-.656a1.698 1.698 0 0 1 1.79 1.61v.156M129.471 49.54l-.62.657a1.47 1.47 0 0 0-1.062-.454 1.419 1.419 0 0 0 0 2.828 1.61 1.61 0 0 0 1.086-.465l.596.668a2.118 2.118 0 0 1-1.646.704 2.32 2.32 0 0 1-2.374-2.267 2.32 2.32 0 0 1 2.267-2.374h.107a2.1 2.1 0 0 1 1.646.704M131.058 50.781h2.29a1.113 1.113 0 0 0-1.12-1.085 1.139 1.139 0 0 0-1.17 1.085m3.281.37c0 .12-.012.25-.024.358h-3.269c.06.668.645 1.157 1.313 1.122a2.144 2.144 0 0 0 1.276-.466l.477.692a2.645 2.645 0 0 1-1.813.62 2.176 2.176 0 0 1-2.267-2.087v-.227a2.152 2.152 0 0 1 1.98-2.314c.072 0 .144-.012.227 0 1.17 0 2.1.954 2.1 2.111v.191M139.457 50.59v2.768h-.966v-2.457c0-.74-.382-1.158-1.026-1.158a1.094 1.094 0 0 0-1.146 1.038v2.565h-.966v-4.414h.955v.537c.31-.43.823-.68 1.36-.656a1.698 1.698 0 0 1 1.79 1.61.39.39 0 0 0 0 .168M143.752 49.827h-1.694v1.92c0 .597.31.824.704.824.322-.012.62-.12.895-.298l.381.775a2.4 2.4 0 0 1-1.36.442c-1.002 0-1.586-.537-1.586-1.718v-1.945h-.883v-.87h.883V47.62h.966v1.336h1.694v.871zM145.422 50.781h2.291a1.113 1.113 0 0 0-1.121-1.085c-.609-.024-1.134.465-1.17 1.085m3.281.37c0 .12-.012.25-.024.358h-3.257a1.25 1.25 0 0 0 1.313 1.122 2.144 2.144 0 0 0 1.276-.466l.477.692a2.645 2.645 0 0 1-1.813.62 2.176 2.176 0 0 1-2.267-2.087v-.227a2.15 2.15 0 0 1 1.969-2.314c.083-.012.155-.012.238-.012 1.17 0 2.1.954 2.1 2.111 0 .072 0 .132-.012.203M152.7 48.956l-.227.955a1.723 1.723 0 0 0-.74-.168c-.584 0-1.05.454-1.061 1.038 0 .048 0 .096.012.144v2.421h-.967v-4.414h.955v.501a1.463 1.463 0 0 1 1.276-.608c.263 0 .513.036.752.131"/>
            </g>
            <g>
                <path d="M32.207 24.486a20.034 20.034 0 0 0-6.144 8.983l7.063 2.374a12.662 12.662 0 0 1 10.2-8.47L42.276 20a20.192 20.192 0 0 0-10.069 4.486M25 39.897C25 51.005 34.007 60 45.103 60c11.095 0 20.102-8.995 20.102-20.103h-7.444c-.072 6.992-5.787 12.599-12.778 12.527-6.895-.071-12.467-5.643-12.527-12.527 0-.167 0-.334.012-.5l-7.444-.287c-.012.262-.024.525-.024.787M46.898 27.373a12.625 12.625 0 0 1 6.502 2.97l4.892-5.619A20 20 0 0 0 47.936 20l-1.038 7.373z"/>
            </g>
        </g>
    </g>
</svg>
