<svg width="250" height="80" viewBox="0 0 250 80" xmlns="http://www.w3.org/2000/svg">
    <g fill="none" fill-rule="evenodd">
        <path fill="none" d="M0 0h250v80H0z"/>
        <g fill="#929CAC">
            <g fill-rule="nonzero">
                <path d="m140.823 30.956-1.898 6.307-2.152-6.307h-2.092l-2.152 6.307-1.898-6.307h-2.675l3.332 10.222h2.391l2.048-6.231 2.047 6.231h2.391l3.333-10.222zM145.035 32.735c.777 0 1.42-.583 1.42-1.36 0-.792-.643-1.375-1.42-1.375-.792 0-1.42.583-1.42 1.375 0 .777.628 1.36 1.42 1.36zm-1.196 1.136v7.248h2.421V33.87h-2.42zM152.191 33.751c-1.076 0-1.853.344-2.495.897v-.777h-2.436v7.248h2.436v-4.155c.567-.553 1.315-.867 2.495-.911V33.75z"/>
                <path d="M155.76 33.676c-2.24 0-3.78 1.614-3.78 3.811 0 2.212 1.584 3.826 3.96 3.826 1.704 0 3.049-.882 3.482-2.301h-2.45c-.225.269-.539.388-1.077.388-.986 0-1.48-.583-1.643-1.33h5.245c.359-2.57-1.18-4.394-3.736-4.394zm.06 1.794c.823 0 1.346.373 1.48 1.21h-3.019c.195-.732.688-1.21 1.54-1.21zM159.973 30.508v10.61h2.436v-10.61zM166.591 33.676c-2.241 0-3.78 1.614-3.78 3.811 0 2.212 1.584 3.826 3.96 3.826 1.703 0 3.048-.882 3.482-2.301h-2.451c-.224.269-.538.388-1.076.388-.986 0-1.48-.583-1.644-1.33h5.246c.358-2.57-1.181-4.394-3.737-4.394zm.06 1.794c.822 0 1.345.373 1.48 1.21h-3.02c.195-.732.688-1.21 1.54-1.21z"/>
                <path d="m172.462 38.638-2.152-.015c.165 1.928 1.704 2.69 3.572 2.69 1.898 0 3.393-.747 3.393-2.421 0-1.285-.912-1.943-2.257-2.197l-1.345-.224c-.583-.105-.762-.329-.762-.583 0-.269.284-.493.911-.493.673 0 1.196.24 1.24.777h2.138c-.105-1.913-1.659-2.496-3.378-2.496-1.927 0-3.228.897-3.228 2.421 0 1.27.882 1.973 2.123 2.182l1.464.254c.478.075.762.254.762.508 0 .314-.403.494-1.046.494-.762 0-1.33-.27-1.435-.897z"/>
                <path d="m179.395 38.638-2.152-.015c.164 1.928 1.703 2.69 3.571 2.69 1.898 0 3.393-.747 3.393-2.421 0-1.285-.912-1.943-2.257-2.197l-1.345-.224c-.583-.105-.762-.329-.762-.583 0-.269.284-.493.912-.493.672 0 1.195.24 1.24.777h2.137c-.105-1.913-1.659-2.496-3.377-2.496-1.928 0-3.229.897-3.229 2.421 0 1.27.882 1.973 2.123 2.182l1.464.254c.478.075.762.254.762.508 0 .314-.403.494-1.046.494-.762 0-1.33-.27-1.434-.897zM198.699 30.956h-1.883l-3.602 5.425-3.602-5.425h-1.883V41.12h2.526l-.015-5.126 2.272 3.512v.015h1.404v-.015l2.257-3.482v5.096h2.526zM203.015 33.676c-2.241 0-3.78 1.614-3.78 3.811 0 2.212 1.584 3.826 3.96 3.826 1.703 0 3.048-.882 3.482-2.301h-2.451c-.224.269-.538.388-1.076.388-.986 0-1.48-.583-1.644-1.33h5.246c.358-2.57-1.181-4.394-3.737-4.394zm.06 1.794c.822 0 1.345.373 1.48 1.21h-3.02c.195-.732.688-1.21 1.54-1.21zM212.533 30.508v3.766c-.538-.359-1.18-.568-1.988-.568-1.957 0-3.601 1.644-3.601 3.796 0 2.167 1.644 3.811 3.601 3.811.807 0 1.45-.21 1.988-.553v.359h2.42v-10.61h-2.42zm-1.495 8.773c-.986 0-1.718-.763-1.718-1.779 0-.986.732-1.748 1.718-1.748.524 0 1.032.134 1.495.642v2.242c-.463.508-.971.643-1.495.643zM217.164 32.735c.777 0 1.42-.583 1.42-1.36 0-.792-.643-1.375-1.42-1.375-.792 0-1.42.583-1.42 1.375 0 .777.628 1.36 1.42 1.36zm-1.196 1.136v7.248h2.421V33.87h-2.421zM224.604 33.87v.374c-.538-.358-1.18-.568-1.988-.568-1.958 0-3.601 1.644-3.601 3.811 0 2.152 1.643 3.826 3.601 3.826.807 0 1.45-.224 1.988-.583v.389h2.42V33.87h-2.42zm-1.495 5.38c-.986 0-1.718-.762-1.718-1.763s.732-1.763 1.718-1.763c.523 0 1.032.134 1.495.642v2.242c-.463.508-.972.643-1.495.643z"/>
            </g>
            <g fill-rule="nonzero">
                <path d="M134.094 45.561v4.356h1.082V45.56zM145.392 45.561h-.807l-1.543 2.325-1.544-2.325h-.807v4.356h1.083l-.007-2.197.974 1.505v.006h.602v-.006l.967-1.492v2.184h1.082zM154.18 49.917h1.153l-1.844-4.356h-1.038l-1.85 4.356h1.152l.288-.75h1.845l.295.75zm-1.786-1.653.57-1.466.57 1.466h-1.14zM162.303 47.47v.852l1.248.013a1.197 1.197 0 0 1-1.108.679c-.768 0-1.261-.57-1.261-1.256 0-.768.506-1.3 1.255-1.3.39 0 .826.147 1.012.653h1.14c-.186-1.037-1.108-1.633-2.178-1.633-1.325 0-2.324.948-2.324 2.306 0 1.249.954 2.216 2.318 2.216.608 0 1.063-.23 1.377-.615l.045.532h.807V47.47h-2.331zM170.232 45.561v4.356h1.083V45.56zM179.757 45.561v2.454l-2.1-2.454h-.827v4.356h1.083v-2.39l2.088 2.39h.832V45.56zM189.64 46.503v-.942h-3.292v4.356h3.293v-.942h-2.21v-.756h1.934v-.922h-1.934v-.794zM204.251 45.561v1.749h-1.774v-1.749h-1.082v4.356h1.082v-1.633h1.774v1.633h1.076V45.56zM213.046 45.478c-1.313 0-2.306.993-2.306 2.261 0 1.268.993 2.261 2.306 2.261 1.313 0 2.306-.993 2.306-2.26 0-1.269-.993-2.262-2.306-2.262zm0 3.51c-.705 0-1.21-.564-1.21-1.249 0-.685.505-1.249 1.21-1.249s1.21.564 1.21 1.25c0 .684-.505 1.248-1.21 1.248zM225.703 45.561l-.814 2.703-.922-2.703h-.897l-.922 2.703-.813-2.703h-1.147l1.428 4.381h1.025l.878-2.67.877 2.67h1.025l1.428-4.38z"/>
            </g>
            <path d="M23 30.8h21.843L33.922 49.566zM44.923 30.8h21.843L55.844 49.566zM117.837 49.565H95.994l10.921-18.764zM95.914 49.565H74.071l10.922-18.764z"/>
        </g>
    </g>
</svg>
