<?xml version="1.0" encoding="UTF-8"?>
<svg width="1660px" height="1029px" viewBox="0 0 1660 1029" version="1.1" xmlns="http://www.w3.org/2000/svg" xmlns:xlink="http://www.w3.org/1999/xlink">
    <title>home hero bg 1</title>
    <g id="UI-v2" stroke="none" stroke-width="1" fill="none" fill-rule="evenodd">
        <g id="white" fill="#FFFFFF" transform="translate(-25.635175, -3.870860)">
            <path d="M1685.63497,0 L1685.63505,151.013874 C1685.2711,151.005176 1684.90608,151.000803 1684.54004,151.000803 C1659.71246,151.000803 1639.58572,171.122501 1639.58572,195.943873 C1639.58572,220.765246 1659.71246,240.886944 1684.54004,240.886944 C1684.90608,240.886944 1685.2711,240.882571 1685.63505,240.873873 L1685.63497,1032.75143 L0,1027.82216 C569.173854,1000.87665 877.842791,980.809565 926.006809,967.620901 C998.252836,947.837904 1087.97168,947.689481 1087.97168,693.86242 C1087.97168,440.035359 1263.80396,325.743252 1422.02055,264.109731 C1527.49828,223.020718 1615.36976,134.984141 1685.63497,0 L1685.63497,0 Z" id="home-hero-bg-1"></path>
        </g>
    </g>
</svg>