<svg width="126" height="105" viewBox="0 0 126 105" xmlns="http://www.w3.org/2000/svg">
    <path d="M54.27 0C23.724 8.4 0 40.2 0 70.2c0 20.4 13.362 34.5 29.997 34.5 16.635 0 29.997-14.1 29.997-34.5C38.448 60 27.813 44.85 27.813 30.9c0-12.75 9-24.3 26.454-29.4L54.27 0zm65.697 0c-30.546 8.4-54.27 40.2-54.27 70.2 0 20.4 13.362 34.5 29.997 34.5 16.635 0 29.997-14.1 29.997-34.5C104.145 60 93.51 44.85 93.51 30.9c0-12.75 9-24.3 26.454-29.4l.003-1.5z" fill="#6B728E" fill-rule="nonzero" opacity=".5"/>
</svg>
